# xmcd
#
# Track frame offsets: 
#        150
#        19385
#        32452
#        45237
#        62950
#        77208
#        90071
#        111992
#        120083
#        137146
#        151998
#        186526
#        200296
#        214139
#        228729
#        239103
#        251243
#        265026
#        284570
#        297232
#
# Disc length: 4242 seconds
#
# Revision: 0
# Processed by: cddbd v1.5.1PL2 Copyright (c) Steve Scherf et al.
# Submitted via: ExactAudioCopy v0.95b3
#
DISCID=26109014
DTITLE=The Junk Joints - 20 Years
DYEAR=2003
DGENRE=Blues
TTITLE0=Soul on Fire
TTITLE1=Jenny Lou
TTITLE2=Betty Lee
TTITLE3=Next time you see me
TTITLE4=Ubangi Stomp
TTITLE5=Dancing Shoes
TTITLE6=Out on the Western Plain
TTITLE7=Truck drivin man
TTITLE8=Please Baby Please
TTITLE9=Don't give up
TTITLE10=What in the World
TTITLE11=Please come home
TTITLE12=Shake It
TTITLE13=Black Cat
TTITLE14=Babe Ruth
TTITLE15=Pack Fair and Square
TTITLE16=I'm Worried
TTITLE17=Don't let you down
TTITLE18=Mojo Hand
TTITLE19=So long baby goodbye
EXTD=
EXTT0=
EXTT1=
EXTT2=
EXTT3=
EXTT4=
EXTT5=
EXTT6=
EXTT7=
EXTT8=
EXTT9=
EXTT10=
EXTT11=
EXTT12=
EXTT13=
EXTT14=
EXTT15=
EXTT16=
EXTT17=
EXTT18=
EXTT19=
PLAYORDER=
